<svg width="59" height="33" viewBox="0 0 59 33" fill="none" xmlns="http://www.w3.org/2000/svg">
<path d="M55.7833 14.6584C54.9963 14.0237 54.087 13.5578 53.1121 13.2897C52.1372 13.0216 51.1176 12.957 50.1167 13.1001L36.0917 15.6501C36.099 14.7765 35.9268 13.9108 35.5856 13.1066C35.2444 12.3024 34.7416 11.5769 34.1083 10.9751L24.05 0.916748H3.08333C2.33189 0.916748 1.61122 1.21526 1.07986 1.74661C0.548511 2.27797 0.25 2.99863 0.25 3.75008V16.5001C0.25 17.2515 0.548511 17.9722 1.07986 18.5035C1.61122 19.0349 2.33189 19.3334 3.08333 19.3334H7.75833L23.625 32.2251L52.525 26.9834C53.8307 26.7285 55.0382 26.111 56.0092 25.2017C56.9803 24.2923 57.6756 23.1279 58.0157 21.8418C58.3557 20.5556 58.3266 19.1997 57.9318 17.9293C57.537 16.6589 56.7924 15.5253 55.7833 14.6584ZM51.5333 21.4584L25.0417 26.2751L10.1667 13.9501V6.58341H21.7833L30.1417 14.9417C30.2533 15.0534 30.3418 15.1859 30.4022 15.3317C30.4627 15.4776 30.4937 15.6339 30.4937 15.7917C30.4937 15.9496 30.4627 16.1059 30.4022 16.2518C30.3418 16.3976 30.2533 16.5301 30.1417 16.6417C30.03 16.7534 29.8975 16.8419 29.7517 16.9023C29.6058 16.9627 29.4495 16.9938 29.2917 16.9938C29.1338 16.9938 28.9775 16.9627 28.8316 16.9023C28.6858 16.8419 28.5533 16.7534 28.4417 16.6417L23.4833 11.6834C22.9377 11.2742 22.2628 11.0755 21.5825 11.1239C20.9022 11.1722 20.2621 11.4643 19.7799 11.9466C19.2976 12.4289 19.0055 13.0689 18.9571 13.7492C18.9088 14.4295 19.1075 15.1045 19.5167 15.6501L24.475 20.6084C25.093 21.2595 25.8415 21.7727 26.6715 22.1145C27.5016 22.4563 28.3944 22.6189 29.2917 22.5917C30.159 22.5879 31.02 22.4444 31.8417 22.1667L51.1083 18.7667C51.5086 18.7107 51.9149 18.8122 52.2417 19.0501C52.3807 19.1743 52.4908 19.3274 52.5642 19.4987C52.6377 19.6701 52.6726 19.8554 52.6667 20.0417C52.6734 20.3732 52.5636 20.6964 52.3565 20.9553C52.1494 21.2141 51.8581 21.3922 51.5333 21.4584Z" fill="black"/>
</svg>
