<svg width="68" height="67" viewBox="0 0 68 67" fill="none" xmlns="http://www.w3.org/2000/svg">
<path d="M19.323 44.714C16.4029 44.7095 12.1621 44.7023 8.30219 44.6957C5.91222 44.6916 3.66828 44.6877 1.97426 44.6849M19.323 44.714L13.5328 59.2986M19.323 44.714C20.0431 44.714 20.7123 45.1068 21.0615 45.7469M19.323 44.714L21.0615 45.7469M1.97426 44.6849C1.30505 44.6849 0.679474 45.0195 0.315769 45.5869C-0.0479356 46.147 -0.0988543 46.8599 0.170287 47.4709L7.28435 63.3357M1.97426 44.6849L1.9718 46.1849C3.66583 46.1877 5.91007 46.1916 8.30037 46.1957C12.1601 46.2023 16.4008 46.2095 19.3207 46.214H19.323C19.4958 46.214 19.6577 46.3082 19.7432 46.4625C19.8226 46.6119 19.8177 46.8042 19.7208 46.9563C19.0772 47.949 18.3976 48.9993 17.8788 49.8015L17.2451 50.7818L17.0651 51.0604L17.0174 51.1343L17.0051 51.1533L17.002 51.1581L17.0012 51.1593L17.001 51.1596L17.001 51.1597L18.261 51.9736L17.0009 51.1597L16.2016 52.3972L17.4245 53.2187L19.3282 54.4975C19.3285 54.4977 19.3288 54.4979 19.3291 54.4981C24.0252 57.6644 29.5478 59.3365 35.2896 59.3365C40.3438 59.3365 45.1416 58.0087 48.7808 55.5089C56.4631 50.2416 60.6753 41.5281 60.2186 32.4628L64.8682 32.3482C65.3224 42.9464 60.2607 53.2837 51.4125 59.3558C46.2116 62.9179 40.1564 64.8035 33.8857 64.8035C27.5961 64.8035 21.5402 62.9372 16.3632 59.4119C16.3631 59.4119 16.363 59.4118 16.3629 59.4117L14.3774 58.059L13.1074 57.1937L12.2731 58.4842L13.5328 59.2986M1.97426 44.6849V46.1849C1.80661 46.1849 1.66138 46.2673 1.57859 46.3964L1.57383 46.4038L1.57381 46.4038C1.49228 46.5294 1.47339 46.7053 1.54167 46.8632L8.65195 62.7195L7.28435 63.3357M7.28435 63.3357C7.58259 63.9977 8.21544 64.4414 8.93557 64.4996C9.65571 64.5578 10.3467 64.2159 10.7468 63.6049M7.28435 63.3357L8.65304 62.722L8.65237 62.7205C8.72556 62.882 8.87946 62.9901 9.05639 63.0044C9.21982 63.0176 9.38627 62.9429 9.49048 62.7853M10.7468 63.6049C11.4378 62.5376 12.1755 61.3974 12.718 60.5585L12.6882 60.5382L13.5328 59.2986M10.7468 63.6049L9.48771 62.7896C9.48863 62.7882 9.48955 62.7867 9.49048 62.7853M10.7468 63.6049L9.49189 62.7832C9.49142 62.7839 9.49095 62.7846 9.49048 62.7853M13.5328 59.2986L12.2731 58.4842L12.2731 58.4843L12.2729 58.4846L12.272 58.4859L12.2689 58.4908L12.2562 58.5103L12.2071 58.5862L12.022 58.8726L11.3713 59.8787C10.8393 60.7013 10.1442 61.7758 9.49048 62.7853M21.0615 45.7469C21.4034 46.3798 21.3743 47.1581 20.9815 47.7691L21.0615 45.7469Z" stroke="black" stroke-width="3" stroke-miterlimit="10"/>
<path d="M66.46 19.4436L66.4579 19.4391L59.345 3.57673C59.3449 3.57669 59.3449 3.57666 59.3449 3.57663C59.2712 3.41309 59.1252 3.30901 58.9487 3.29253C58.768 3.28222 58.6018 3.37 58.5119 3.50983L58.5092 3.51394C57.8547 4.52475 57.1584 5.60109 56.6256 6.42479L55.9749 7.43096L55.7898 7.71729L55.7407 7.79321L55.7281 7.81273L55.7249 7.81767L55.7241 7.81892L55.7239 7.81923L55.7238 7.8193L54.4641 7.00495L55.7238 7.81933L54.8895 9.10983L53.6195 8.24458L51.634 6.8918C46.457 3.36642 40.401 1.5 34.1112 1.5C27.8407 1.5 21.7856 3.3855 16.5849 6.94741C7.73714 13.019 2.67532 23.3552 3.1286 33.9526L7.78469 33.8292C7.32135 24.7618 11.5407 16.0477 19.2156 10.7804L66.46 19.4436ZM66.46 19.4436C66.5245 19.5862 66.509 19.7545 66.428 19.8777L66.4257 19.8812M66.46 19.4436L66.4257 19.8812M48.6739 21.575C47.9465 21.575 47.2846 21.1822 46.9354 20.542L48.6739 21.575ZM48.6739 21.575C51.6133 21.5795 55.8909 21.5868 59.7694 21.5935M48.6739 21.575L59.7694 21.5935M50.9941 15.1322L49.736 14.3154L50.9941 15.1322ZM50.9941 15.1322L51.7981 13.8937M50.9941 15.1322L51.7981 13.8937M51.7981 13.8937L50.5724 13.0703M51.7981 13.8937L50.5724 13.0703M50.5724 13.0703L48.6688 11.7915C48.6685 11.7913 48.6682 11.7911 48.6679 11.7909C43.9718 8.62455 38.4491 6.9525 32.7073 6.9525C27.6532 6.9525 22.8554 8.28028 19.2162 10.78L50.5724 13.0703ZM66.4257 19.8812C66.333 20.023 66.1805 20.1041 66.0154 20.1041M66.4257 19.8812L66.0154 20.1041M66.0154 20.1041V21.6041M66.0154 20.1041V21.6041M66.0154 21.6041C64.3422 21.6013 62.1297 21.5975 59.7694 21.5935M66.0154 21.6041L59.7694 21.5935" stroke="black" stroke-width="3" stroke-miterlimit="10"/>
<path d="M18.0126 26.2932L18.0107 26.2884C18.9815 25.7979 20.2493 25.4392 21.6798 25.4392C23.2947 25.4392 24.3757 25.9064 25.0402 26.5293C25.6979 27.1458 26.0936 28.05 26.0936 29.2275C26.0936 31.3096 24.5867 33.1518 22.126 35.3507L20.5896 36.6286L20.0488 37.0784V37.7818V37.8327V39.3327H21.5488H26.3991V39.577H17.4478V39.356L19.126 37.8349C20.9596 36.1969 22.4115 34.8281 23.4113 33.5927C24.4166 32.3506 25.1072 31.0736 25.1504 29.6212L25.151 29.5989V29.5766C25.151 28.5915 24.8491 27.5526 24.0478 26.761C23.2441 25.967 22.1295 25.6107 20.8796 25.6107C19.8035 25.6107 18.8327 25.903 18.0126 26.2932Z" stroke="black" stroke-width="3" stroke-miterlimit="10"/>
<path d="M36.8696 37.0614V35.6009V35.5614V34.1009V30.3693C36.8696 29.4072 36.9181 28.4062 36.9965 27.3446L37.1154 25.7341H35.5006H35.3987H35.1055L35.1127 25.7227H37.6013V34.1082V35.5614V35.6082V37.0614V39.5767H36.8696V37.0614ZM30.0871 34.1009V35.5614H29.3992V34.9216L30.0871 33.8139V34.05V34.1009Z" stroke="black" stroke-width="3" stroke-miterlimit="10"/>
<path d="M43.7915 31.4037H44.4022C44.2486 31.6324 44.1247 31.8685 44.0301 32.0993C43.7963 32.6551 43.7842 33.2608 43.7842 33.5553V39.5767H42.8417V24.1733H43.7915V29.9037V31.4037ZM50.2143 31.2472C49.6626 30.419 48.8282 29.9349 47.8338 29.8247C48.1481 29.6982 48.5479 29.6143 48.9504 29.6143C49.8431 29.6143 50.5104 29.9116 50.9755 30.4454C51.4605 31.0021 51.8803 31.9963 51.8803 33.6644V39.5767H50.9377V34.1009C50.9377 33.1424 50.7794 32.0957 50.2143 31.2472Z" stroke="black" stroke-width="3" stroke-miterlimit="10"/>
</svg>
