<svg width="68" height="70" viewBox="0 0 68 70" fill="none" xmlns="http://www.w3.org/2000/svg">
<path d="M61.701 23.8372L61.5178 24.0073C61.448 23.9321 61.3937 23.8439 61.358 23.7477C61.3222 23.6515 61.3058 23.5492 61.3097 23.4466C61.3135 23.3441 61.3375 23.2433 61.3803 23.15L61.3808 23.1489C61.561 22.7615 62.0232 22.583 62.4171 22.7671C63.32 23.1817 64.3669 23.5711 64.721 23.7028L64.7261 23.7047L64.7266 23.7049C65.2928 23.9169 65.8938 24.1762 66.3502 24.6222C66.8183 25.0795 67.1163 25.7139 67.1163 26.6333V29.1405V29.1408H66.8663L61.701 23.8372ZM61.701 23.8372L61.5178 24.0073C61.5876 24.0824 61.6714 24.1431 61.7646 24.1859L61.701 23.8372ZM51.412 15.0033C51.8779 11.9718 53.8503 11.0726 53.9122 11.0452C54.0313 10.9936 54.1357 10.9132 54.2159 10.8111C54.2962 10.709 54.3498 10.5884 54.3718 10.4603C54.3719 10.4602 54.3719 10.46 54.3719 10.4599L51.412 15.0033ZM51.412 15.0033C53.3959 14.0305 57.4119 12.3424 61.0561 12.5585C61.1649 12.5646 61.2711 12.5937 61.3679 12.6436C61.4648 12.6937 61.55 12.7635 61.618 12.8487C61.6182 12.8489 61.6183 12.8491 61.6185 12.8493L61.7677 13.0341C61.6079 12.069 61.2655 11.3169 60.7575 10.7705L60.7575 10.7704C60.0104 9.966 58.8423 9.53478 57.2368 9.53478C56.1403 9.53478 55.0659 9.739 54.2801 9.93839M65.5541 29.1408H65.8041L61.869 23.9587C62.8214 24.3965 63.9107 24.8022 64.2677 24.9339L64.18 25.168C64.1801 25.1681 64.1803 25.1682 64.1805 25.1682C64.7882 25.3961 65.1204 25.5809 65.3079 25.7882C65.4806 25.9792 65.5541 26.2172 65.5541 26.6333V29.1406V29.1408ZM50.1414 17.0248L50.1433 17.0258C50.2631 17.0941 50.3981 17.1291 50.5325 17.1291C50.6687 17.1291 50.803 17.0938 50.924 17.024L50.9248 17.0235L50.9262 17.0227L50.9298 17.0206L50.943 17.0131L50.9917 16.9856C51.034 16.9619 51.0954 16.9279 51.1746 16.885C51.3328 16.7992 51.5618 16.678 51.8496 16.5339C52.4253 16.2454 53.2352 15.8652 54.1836 15.4913C56.0545 14.7536 58.4394 14.0505 60.6238 14.1043L62.0082 15.8199C62.2121 16.0731 62.545 16.1673 62.8464 16.0768L62.8464 16.0768L62.8486 16.0761C62.9984 16.0297 63.1308 15.9391 63.2283 15.8162L63.0325 15.6608L63.2283 15.8162C63.3257 15.6935 63.3838 15.5443 63.3952 15.3881C63.5795 12.9227 63.0962 10.9939 61.9028 9.70712L61.9026 9.70695C60.8222 8.54422 59.2395 7.97241 57.2365 7.97241C54.8249 7.97241 52.6101 8.80796 52.5108 8.84597L52.5107 8.84599C52.3868 8.89346 52.277 8.97171 52.1916 9.07336C52.1062 9.17501 52.0482 9.29672 52.0228 9.42701L52.0228 9.42706C51.9975 9.55757 52.0059 9.69239 52.0473 9.81874C52.0887 9.94504 52.1616 10.0587 52.2591 10.1489C52.2592 10.149 52.2592 10.149 52.2593 10.149L52.3328 10.2171C51.2779 11.0613 49.7504 12.8866 49.7514 16.3481L49.7514 16.3485C49.7517 16.4855 49.7878 16.62 49.8562 16.7386C49.9247 16.8573 50.023 16.9559 50.1414 17.0248ZM50.0728 16.6137C50.0262 16.5329 50.0016 16.4413 50.0014 16.348L50.7991 16.8074C50.7162 16.8552 50.625 16.8791 50.5325 16.8791C50.4412 16.8791 50.3489 16.8552 50.267 16.8086C50.1864 16.7617 50.1194 16.6945 50.0728 16.6137Z" fill="black" stroke="black" stroke-width="0.5"/>
<path d="M48.6508 30.8898L48.8276 30.713C48.9002 30.7856 48.9577 30.8718 48.9969 30.9666C49.0361 31.0614 49.0563 31.163 49.0562 31.2655C49.0562 31.2656 49.0562 31.2656 49.0562 31.2657L49.0562 68.4477C49.0562 68.8794 48.7067 69.229 48.2751 69.229C47.8434 69.229 47.4939 68.8794 47.4939 68.4477V31.2655C47.4939 30.834 47.8433 30.4843 48.275 30.4843L48.6508 30.8898ZM48.6508 30.8898L48.8276 30.713C48.755 30.6405 48.6689 30.5829 48.5741 30.5436C48.4793 30.5044 48.3777 30.4842 48.2751 30.4843L48.6508 30.8898ZM65.5541 68.4475C65.554 68.5501 65.5742 68.6518 65.6134 68.7466C65.6526 68.8414 65.7102 68.9276 65.7827 69.0002C65.8553 69.0728 65.9415 69.1303 66.0363 69.1696C66.1311 69.2088 66.2326 69.229 66.3352 69.229H66.3353C66.767 69.2289 67.1165 68.8794 67.1165 68.4477V31.2655C67.1165 30.8338 66.7669 30.4843 66.3352 30.4843C65.9036 30.4843 65.5541 30.834 65.5541 31.2655V68.4475ZM65.5541 68.4475L65.8041 68.4477H65.5541V68.4475ZM51.2122 16.988C51.2122 18.8899 52.0932 20.7877 53.2751 22.2056C54.4485 23.6133 55.9729 24.6102 57.3052 24.6102C58.637 24.6102 60.1614 23.6133 61.3349 22.2056C62.5169 20.7877 63.3981 18.8899 63.3981 16.988C63.3981 16.5564 63.0488 16.2068 62.617 16.2068C62.1852 16.2068 61.8359 16.5564 61.8359 16.988C61.8359 18.5089 61.1123 20.0319 60.1612 21.1805C59.6872 21.7531 59.1631 22.2244 58.6572 22.5507C58.1466 22.8801 57.6763 23.0478 57.3052 23.0478C56.9338 23.0478 56.4634 22.88 55.9528 22.5507C55.4468 22.2244 54.9228 21.7531 54.4488 21.1806C53.4979 20.032 52.7746 18.509 52.7746 16.988C52.7746 16.5564 52.4253 16.2068 51.9935 16.2068C51.5617 16.2068 51.2122 16.5563 51.2122 16.988Z" fill="black" stroke="black" stroke-width="0.5"/>
<path d="M56.2641 25.4014L56.2642 25.4015C56.3733 25.5107 56.4476 25.6499 56.4777 25.8014C56.5078 25.9529 56.4923 26.1099 56.4332 26.2526C56.3741 26.3953 56.274 26.5173 56.1456 26.6031C56.0173 26.6889 55.8663 26.7348 55.7119 26.7349C55.7119 26.7349 55.7119 26.7349 55.7118 26.7349L55.7117 26.4849C55.6419 26.4849 55.5729 26.4712 55.5084 26.4445C55.4439 26.4179 55.3854 26.3787 55.3361 26.3293L56.2641 25.4014ZM56.2641 25.4014L54.1407 23.278C54.069 23.2042 53.9834 23.1453 53.8888 23.1047C53.7935 23.0637 53.691 23.0422 53.5872 23.0413C53.4835 23.0404 53.3806 23.0601 53.2846 23.0994C53.1886 23.1387 53.1014 23.1967 53.028 23.2701L53.2048 23.4468L53.028 23.2701C52.9547 23.3434 52.8966 23.4306 52.8574 23.5267C52.8181 23.6227 52.7983 23.7255 52.7992 23.8293C52.8001 23.933 52.8217 24.0355 52.8626 24.1308C52.9032 24.2254 52.9622 24.311 53.036 24.3828L55.1592 26.506L56.2641 25.4014ZM62.617 17.7691C62.7196 17.7691 62.8212 17.749 62.9159 17.7097C63.0107 17.6705 63.0969 17.6129 63.1694 17.5404L62.9927 17.3636L63.1694 17.5404C63.242 17.4678 63.2995 17.3817 63.3388 17.2869C63.378 17.1921 63.3982 17.0905 63.3981 16.988C63.3981 16.9879 63.3981 16.9879 63.3981 16.9879V15.3301C63.3981 14.8984 63.0488 14.5488 62.617 14.5488C62.1852 14.5488 61.8359 14.8986 61.8359 15.3301V16.9879C61.8359 16.9879 61.8359 16.9879 61.8359 16.988C61.8359 17.0905 61.856 17.1921 61.8953 17.2869C61.9345 17.3817 61.9921 17.4678 62.0646 17.5404C62.1372 17.6129 62.2233 17.6705 62.3181 17.7097C62.4129 17.749 62.5145 17.7691 62.617 17.7691ZM62.617 17.7691C62.617 17.7691 62.6169 17.7691 62.6169 17.7691L62.617 17.5191L62.6171 17.7691C62.6171 17.7691 62.6171 17.7691 62.617 17.7691ZM51.2121 16.988C51.2121 17.4196 51.5616 17.769 51.9932 17.7691H51.9933C52.0959 17.7691 52.1975 17.749 52.2923 17.7097C52.3871 17.6705 52.4732 17.6129 52.5458 17.5404C52.6183 17.4678 52.6759 17.3817 52.7151 17.2869C52.7543 17.1921 52.7745 17.0905 52.7745 16.988C52.7745 16.9879 52.7745 16.9879 52.7745 16.9879V15.5957C52.7745 15.1642 52.4251 14.8146 51.9933 14.8146C51.5617 14.8146 51.2121 15.1641 51.2121 15.5957V16.988Z" fill="black" stroke="black" stroke-width="0.5"/>
<path d="M56.8759 24.2386L56.876 24.2387C57.0484 24.1285 57.2571 24.0903 57.4573 24.1324C57.6575 24.1744 57.8332 24.2933 57.9467 24.4636C58.0602 24.6338 58.1024 24.8417 58.0642 25.0427L57.8186 24.9961L58.0642 25.0427C58.026 25.2437 57.9106 25.4217 57.7426 25.5385L57.7386 25.5412L57.7386 25.5412L56.1451 26.6036L56.1449 26.6037C56.0166 26.689 55.8661 26.7346 55.7121 26.7348C55.7121 26.7348 55.712 26.7348 55.712 26.7348L55.7117 26.4848C55.6242 26.4849 55.5381 26.4634 55.4609 26.4221C55.3838 26.3809 55.3181 26.3211 55.2697 26.2483L56.8759 24.2386ZM56.8759 24.2386L56.8719 24.2413L55.2786 25.3035L55.417 25.5117L55.2783 25.3037L55.2784 25.3036C55.193 25.3604 55.1196 25.4335 55.0625 25.5187C55.0053 25.604 54.9655 25.6997 54.9454 25.8004C54.9252 25.9011 54.9252 26.0047 54.9451 26.1054C54.9651 26.206 55.0047 26.3016 55.0617 26.3869L56.8759 24.2386ZM58.3463 25.4014L58.3464 25.4013L60.4712 23.2766L60.475 23.2727L60.4751 23.2727C60.6226 23.1315 60.8196 23.0537 61.0239 23.056C61.2281 23.0582 61.4233 23.1403 61.5677 23.2848C61.7121 23.4292 61.7942 23.6245 61.7964 23.8287C61.7987 24.0329 61.7208 24.2299 61.5796 24.3774L61.5758 24.3814L61.5758 24.3813L59.4512 26.5059L59.451 26.506L58.3463 25.4014ZM58.3463 25.4014C58.2372 25.5107 58.1629 25.6498 58.1328 25.8013C58.1027 25.9528 58.1182 26.1098 58.1773 26.2525C58.2364 26.3952 58.3364 26.5172 58.4649 26.603C58.5932 26.6889 58.7442 26.7347 58.8986 26.7348M58.3463 25.4014L58.8986 26.7348M58.8986 26.7348C58.8986 26.7348 58.8987 26.7348 58.8987 26.7348L58.8988 26.4848L58.8986 26.7348Z" fill="black" stroke="black" stroke-width="0.5"/>
<path d="M56.8705 24.2423L56.8705 24.2423C56.9557 24.1851 57.0514 24.1454 57.152 24.1253C57.2527 24.1051 57.3563 24.1051 57.4569 24.125C57.5575 24.1449 57.6532 24.1845 57.7386 24.2414C57.7386 24.2415 57.7386 24.2415 57.7387 24.2415L59.332 25.3038L59.3321 25.3039C59.4716 25.397 59.5775 25.5325 59.634 25.6904C59.6905 25.8484 59.6947 26.0203 59.6459 26.1808C59.5972 26.3413 59.4981 26.4818 59.3633 26.5816C59.2285 26.6814 59.0651 26.7351 58.8975 26.7349L56.8705 24.2423ZM56.8705 24.2423C56.7852 24.2994 56.7121 24.3728 56.6552 24.4582C56.5983 24.5434 56.5587 24.639 56.5387 24.7395C56.5187 24.8403 56.5188 24.9439 56.5389 25.0446C56.559 25.1453 56.5988 25.241 56.656 25.3263C56.7132 25.4115 56.7865 25.4845 56.8719 25.5413L56.8705 24.2423ZM58.4652 26.6035L58.4654 26.6037C58.5933 26.6891 58.7436 26.7347 58.8974 26.7349L58.4652 26.6035ZM58.4652 26.6035L56.8722 25.5415L58.4652 26.6035ZM27.0279 69.229C26.5962 69.229 26.2466 68.8794 26.2466 68.4477V42.951C26.2466 42.5193 26.5961 42.1698 27.0278 42.1698L27.0279 69.229ZM27.0279 69.229C27.4595 69.229 27.809 68.8794 27.809 68.4477L27.809 42.9512C27.809 42.9511 27.809 42.9511 27.809 42.951C27.8091 42.8485 27.7889 42.7469 27.7497 42.6521C27.7105 42.5573 27.6529 42.4711 27.5804 42.3985C27.5078 42.326 27.4217 42.2684 27.3268 42.2291C27.2321 42.1899 27.1305 42.1697 27.0279 42.1698V69.229ZM44.3068 68.4475C44.3067 68.5501 44.3268 68.6518 44.3661 68.7466C44.4053 68.8414 44.4628 68.9276 44.5354 69.0002C44.6079 69.0728 44.6941 69.1303 44.7889 69.1696C44.8837 69.2088 44.9853 69.229 45.0879 69.229H45.088C45.5197 69.2289 45.8691 68.8794 45.8691 68.4477V42.951C45.8691 42.5193 45.5196 42.1698 45.0879 42.1698C44.6562 42.1698 44.3068 42.5193 44.3068 42.951V68.4475ZM44.3068 68.4475L44.5568 68.4477H44.3068V68.4475ZM48.2751 32.0468H66.3352C66.767 32.0468 67.1163 31.6972 67.1163 31.2655C67.1163 30.8338 66.7668 30.4843 66.3351 30.4843H48.2751C47.8434 30.4843 47.4939 30.8338 47.4939 31.2655C47.4939 31.6972 47.8434 32.0468 48.2751 32.0468Z" fill="black" stroke="black" stroke-width="0.5"/>
<path d="M5.05883 55.4004L5.28948 55.4959L5.05883 55.4004C5.01959 55.4952 4.99942 55.5968 4.99945 55.6993C4.99945 55.6994 4.99945 55.6994 4.99945 55.6995L4.99945 68.4476C4.99945 68.8793 5.34898 69.2289 5.7807 69.2289C6.21233 69.2289 6.56182 68.8793 6.56182 68.4476V55.6995C6.56182 55.6994 6.56182 55.6994 6.56182 55.6993C6.56185 55.5968 6.54168 55.4952 6.50245 55.4004L6.27278 55.4955L6.50245 55.4004C6.46321 55.3056 6.40567 55.2195 6.33311 55.1469C6.26056 55.0744 6.17441 55.0168 6.07961 54.9776C5.9848 54.9383 5.88319 54.9182 5.78057 54.9182L5.7807 55.1682L5.78089 54.9182C5.67826 54.9181 5.57663 54.9383 5.4818 54.9775C5.38697 55.0168 5.3008 55.0743 5.22823 55.1469L5.22823 55.1469C5.15565 55.2194 5.09809 55.3056 5.05883 55.4004ZM24.1397 54.9776L24.0441 55.2086L24.1397 54.9776C24.0449 54.9383 23.9433 54.9182 23.8407 54.9182L23.8408 55.1682L23.841 54.9182C23.7384 54.9181 23.6367 54.9383 23.5419 54.9775C23.4471 55.0168 23.3609 55.0743 23.2883 55.1469C23.2158 55.2194 23.1582 55.3056 23.1189 55.4004C23.0797 55.4952 23.0595 55.5968 23.0596 55.6993C23.0596 55.6994 23.0596 55.6994 23.0596 55.6995V68.4476C23.0596 68.8793 23.4091 69.2289 23.8408 69.2289C24.2726 69.2289 24.6219 68.8792 24.6219 68.4476V55.6995C24.6219 55.6994 24.6219 55.6994 24.6219 55.6993C24.622 55.5968 24.6018 55.4952 24.5626 55.4004L24.3316 55.496L24.5626 55.4004C24.5233 55.3056 24.4658 55.2195 24.3932 55.1469C24.3207 55.0744 24.2345 55.0168 24.1397 54.9776ZM27.0279 43.732H45.0879C45.5195 43.732 45.8691 43.3827 45.8691 42.9509C45.8691 42.5192 45.5196 42.1697 45.0879 42.1697H27.0279C26.5962 42.1697 26.2467 42.5192 26.2467 42.9509C26.2467 43.3827 26.5963 43.732 27.0279 43.732Z" fill="black" stroke="black" stroke-width="0.5"/>
<path d="M53.1754 1.91705L53.1768 1.9162C53.2901 1.84658 53.4193 1.80698 53.5521 1.80114C53.685 1.7953 53.8171 1.82341 53.9361 1.88283L53.9362 1.88289L55.478 2.65377L56.6796 1.05098C56.6796 1.05091 56.6797 1.05083 56.6797 1.05075C56.8349 0.843448 57.0777 0.75 57.3046 0.75C57.5315 0.75 57.7742 0.843429 57.9294 1.05069L53.1754 1.91705ZM53.1754 1.91705C52.9461 2.06 52.8057 2.31098 52.8057 2.58156V5.76848M53.1754 1.91705L61.0234 6.54992H53.587C53.5869 6.54992 53.5869 6.54992 53.5868 6.54992C53.4842 6.54995 53.3827 6.52977 53.2879 6.49053C53.193 6.45127 53.1069 6.39371 53.0343 6.32114C52.9618 6.24857 52.9042 6.1624 52.865 6.06756C52.8258 5.97274 52.8056 5.87111 52.8057 5.76848M61.4338 1.91652L61.4343 1.9168C61.5473 1.98698 61.6407 2.08481 61.7054 2.20105C61.7702 2.3173 61.8043 2.44813 61.8045 2.58119V2.58156V5.76841V5.76867H61.5545C61.5546 5.83843 61.5409 5.90752 61.5142 5.97199C61.4876 6.03646 61.4485 6.09504 61.3992 6.14438C61.3498 6.19372 61.2913 6.23285 61.2268 6.25954L61.4338 1.91652ZM61.4338 1.91652C61.3205 1.84651 61.1911 1.80668 61.0581 1.80083C60.9251 1.79499 60.7929 1.82323 60.674 1.88288L61.4338 1.91652ZM52.8057 5.76848L53.0557 5.76867M52.8057 5.76848V5.76867H53.0557M53.0557 5.76867V2.58156C53.0557 2.39788 53.1511 2.22682 53.3077 2.1292L53.5868 6.29992C53.5171 6.29995 53.448 6.28623 53.3835 6.25955C53.319 6.23286 53.2605 6.19373 53.2111 6.14439C53.1618 6.09505 53.1227 6.03647 53.096 5.972C53.0694 5.90753 53.0557 5.83843 53.0557 5.76867ZM43.4772 25.3974L43.4772 25.3974C43.6248 25.2562 43.8218 25.1784 44.026 25.1807C44.2302 25.1829 44.4254 25.2651 44.5698 25.4095C44.7142 25.5539 44.7964 25.7492 44.7986 25.9534C44.8008 26.1576 44.7229 26.3546 44.5817 26.5021L44.5779 26.5061L44.5779 26.506L37.1416 33.9424L43.4772 25.3974ZM43.4772 25.3974L43.4733 25.4013M43.4772 25.3974L43.4733 25.4013M43.4733 25.4013L36.037 32.8377L43.4733 25.4013ZM36.7924 33.881L36.888 34.112C36.7932 34.1513 36.6916 34.1714 36.589 34.1713C36.4345 34.1714 36.2835 34.1256 36.1551 34.0398C36.0265 33.954 35.9264 33.8319 35.8673 33.6891C35.8081 33.5464 35.7927 33.3892 35.8229 33.2377C35.8531 33.0862 35.9276 32.947 36.0368 32.8378L36.7924 33.881ZM36.7924 33.881L36.888 34.112M36.7924 33.881L36.888 34.112M59.132 2.65381L57.9296 1.05098L59.132 2.65381ZM59.132 2.65381L60.6736 1.8831L59.132 2.65381ZM36.888 34.112C36.9828 34.0727 37.0689 34.0152 37.1415 33.9426L36.888 34.112ZM59.248 4.34271L60.2421 3.84525V4.98755H54.3681V3.84526L55.3621 4.34271L55.3637 4.34351C55.6991 4.50832 56.1087 4.41753 56.3362 4.11221C56.3363 4.11206 56.3364 4.11191 56.3365 4.11176L57.305 2.82093L58.2732 4.11251L58.2735 4.11286C58.3834 4.25894 58.541 4.36193 58.7189 4.40396C58.8968 4.44599 59.0839 4.4244 59.2475 4.34295L59.248 4.34271ZM5.7807 56.4804H23.8408C24.2725 56.4804 24.6219 56.131 24.6219 55.6993C24.6219 55.2675 24.2724 54.9181 23.8408 54.9181H5.7807C5.34906 54.9181 4.99945 55.2675 4.99945 55.6993C4.99945 56.1311 5.34907 56.4804 5.7807 56.4804Z" fill="black" stroke="black" stroke-width="0.5"/>
<path d="M0.82005 44.3363C0.882033 44.4732 0.982218 44.5892 1.10856 44.6705C1.23492 44.7518 1.38207 44.7948 1.53232 44.7945L1.53244 44.7945C1.64344 44.7942 1.75312 44.7703 1.85425 44.7245L1.85459 44.7244L36.9126 28.7894L36.9128 28.7893C37.1012 28.7034 37.2479 28.5462 37.3205 28.3523C37.3931 28.1584 37.3858 27.9435 37.3001 27.755C37.24 27.622 37.1473 27.5145 37.0359 27.4372L44.1035 26.7305L44.1036 26.7305C44.3096 26.7097 44.4989 26.6081 44.6299 26.4479L44.4364 26.2896L44.6299 26.4478C44.761 26.2876 44.823 26.0819 44.8025 25.876C44.7597 25.4479 44.3865 25.1358 43.9495 25.1767L43.9495 25.1767L43.9479 25.1768L33.3242 26.2392L33.3241 26.2392C33.1248 26.2592 32.9408 26.355 32.8102 26.5068C32.6795 26.6587 32.6122 26.8549 32.6221 27.0549C32.632 27.255 32.7184 27.4436 32.8634 27.5817C33.0084 27.7199 33.201 27.797 33.4013 27.7973H33.4016C33.4285 27.7973 33.4552 27.7957 33.4817 27.7927C33.4824 27.7926 33.4832 27.7925 33.4839 27.7924L35.8513 27.5557L1.20785 43.3022C1.11444 43.3446 1.0303 43.4051 0.960251 43.48C0.890201 43.555 0.835622 43.6431 0.799627 43.7392C0.76363 43.8353 0.746925 43.9375 0.750465 44.04C0.753999 44.1424 0.777644 44.2431 0.82005 44.3363ZM0.82005 44.3363C0.82012 44.3365 0.820189 44.3367 0.820259 44.3368L1.04776 44.2332L0.820028 44.3363C0.820035 44.3363 0.820043 44.3363 0.82005 44.3363ZM3.65647 48.7939L3.65602 49.0439C3.78395 49.0442 3.90994 49.0127 4.02273 48.9523C4.02284 48.9523 4.02295 48.9522 4.02306 48.9521L38.0173 30.8929C38.1081 30.8449 38.1884 30.7795 38.2538 30.7004L38.0612 30.5411L38.2538 30.7004C38.3192 30.6213 38.3684 30.53 38.3984 30.4319C38.4285 30.3338 38.4389 30.2307 38.4291 30.1285C38.4192 30.0263 38.3893 29.9271 38.341 29.8365L38.3409 29.8363C38.1397 29.4597 37.667 29.3064 37.2841 29.5139C37.2837 29.5141 37.2833 29.5143 37.2829 29.5146L3.29002 47.5729L3.40691 47.7939L3.28963 47.5731L3.28975 47.573C3.19913 47.621 3.11886 47.6864 3.05352 47.7654C2.98812 47.8445 2.93898 47.9358 2.90891 48.0339C2.87884 48.132 2.86844 48.2352 2.87829 48.3373C2.88815 48.4395 2.91808 48.5387 2.96635 48.6293L3.18698 48.5117L2.96613 48.6289C3.03264 48.7543 3.13207 48.8592 3.25372 48.9323L3.38253 48.718L3.25373 48.9323C3.37538 49.0054 3.51467 49.044 3.65661 49.0439L3.65647 48.7939ZM3.65647 48.7939C3.74316 48.7941 3.82855 48.7727 3.90496 48.7318M3.65647 48.7939L3.90496 48.7318M3.90496 48.7318L37.9004 30.6719L3.90496 48.7318Z" fill="black" stroke="black" stroke-width="0.5"/>
<path d="M3.40898 49.0042L3.40827 49.004C3.21198 48.9381 3.04982 48.7971 2.95734 48.6119C2.86487 48.4266 2.84962 48.2123 2.91496 48.0158L2.91501 48.0156L3.97733 44.8287L3.97738 44.8285L3.40898 49.0042ZM3.40898 49.0042C3.48884 49.0308 3.57248 49.0442 3.65664 49.0439L3.65594 48.7939L3.65611 49.0439C3.81999 49.0438 3.97968 48.9922 4.11259 48.8963C4.2455 48.8005 4.34491 48.6652 4.39674 48.5098L4.39674 48.5098L5.4591 45.3228L5.45916 45.3226C5.52449 45.1262 5.50925 44.9118 5.41677 44.7265C5.3243 44.5413 5.16213 44.4003 4.96584 44.3344L4.96538 44.3343C4.86803 44.3018 4.76526 44.2889 4.66292 44.2962C4.56057 44.3035 4.46067 44.3308 4.36891 44.3767C4.27715 44.4227 4.19534 44.4862 4.12815 44.5638L4.31709 44.7275L3.40898 49.0042Z" fill="black" stroke="black" stroke-width="0.5"/>
<path d="M4.71836 45.6069C4.82979 45.6068 4.93837 45.5717 5.02876 45.5065C5.11916 45.4414 5.18679 45.3495 5.22212 45.2438C5.26656 45.1101 5.2562 44.9643 5.19328 44.8383C5.13037 44.7122 5.02004 44.6163 4.8865 44.5715L1.6994 43.5091C1.63324 43.4867 1.56329 43.4777 1.4936 43.4824C1.42391 43.4872 1.35586 43.5058 1.29339 43.5371C1.23092 43.5683 1.17527 43.6117 1.12965 43.6646C1.08404 43.7175 1.04936 43.7789 1.02763 43.8453M4.71836 45.6069C4.66122 45.6071 4.60444 45.598 4.55022 45.5799L1.36312 44.5176M4.71836 45.6069L4.71906 45.8569C4.63491 45.8571 4.55127 45.8437 4.47139 45.8172L4.47116 45.8171L1.28406 44.7547L1.28365 44.7546C1.08731 44.6888 0.925094 44.5477 0.832625 44.3624C0.740158 44.1771 0.724991 43.9627 0.790451 43.7663L1.02763 43.8453M4.71836 45.6069L4.71858 45.8569C4.8824 45.8568 5.04204 45.8051 5.17495 45.7093C5.30785 45.6136 5.40729 45.4784 5.45922 45.323L5.45934 45.3227C5.52468 45.1262 5.50944 44.9119 5.41696 44.7266C5.32448 44.5414 5.16232 44.4003 4.96603 44.3345L4.96556 44.3343L1.77959 43.2723C1.77939 43.2723 1.77918 43.2722 1.77897 43.2721C1.6817 43.2393 1.57888 43.226 1.47644 43.233C1.37378 43.2401 1.27354 43.2674 1.18152 43.3135C1.0895 43.3595 1.00752 43.4234 0.94032 43.5013C0.873121 43.5792 0.822043 43.6697 0.790035 43.7675L1.02763 43.8453M1.36312 44.5176C1.22956 44.4728 1.11922 44.3769 1.05632 44.2508C0.993423 44.1248 0.983105 43.9789 1.02763 43.8453M1.36312 44.5176L1.36311 44.5176L1.36312 44.5176ZM19.2157 62.4493L19.039 62.6261C18.9664 62.5535 18.9089 62.4674 18.8696 62.3726C18.8304 62.2778 18.8102 62.1762 18.8102 62.0737L19.2157 62.4493ZM19.2157 62.4493L19.039 62.6261C19.1115 62.6986 19.1977 62.7562 19.2925 62.7954C19.3873 62.8347 19.4889 62.8548 19.5915 62.8548M19.2157 62.4493L19.5915 62.8548M19.2157 55.3258L19.039 55.149C19.1115 55.0765 19.1977 55.0189 19.2925 54.9797C19.3872 54.9405 19.4888 54.9203 19.5914 54.9203L19.2157 55.3258ZM19.2157 55.3258L19.039 55.149C18.9664 55.2216 18.9089 55.3077 18.8696 55.4025C18.8304 55.4973 18.8102 55.5989 18.8102 55.7014C18.8102 55.7015 18.8102 55.7015 18.8102 55.7016M19.2157 55.3258L18.8102 55.7016M10.0302 63.6671L10.0304 63.4171C9.92776 63.4171 9.82612 63.4372 9.7313 63.4764C9.63646 63.5157 9.5503 63.5732 9.47772 63.6458C9.40514 63.7183 9.34758 63.8045 9.30833 63.8993C9.26909 63.9941 9.24891 64.0957 9.24895 64.1983C9.24895 64.1983 9.24895 64.1983 9.24895 64.1984V68.4477C9.24895 68.8795 9.59848 69.229 10.0302 69.229C10.4618 69.229 10.8113 68.8794 10.8113 68.4477V64.1984C10.8113 64.1983 10.8113 64.1983 10.8113 64.1983C10.8113 64.0957 10.7912 63.9941 10.7519 63.8994C10.7127 63.8045 10.6552 63.7184 10.5826 63.6459C10.5101 63.5733 10.4239 63.5158 10.3291 63.4765C10.2343 63.4373 10.1327 63.4171 10.0301 63.4171L10.0302 63.6671ZM10.0302 63.6671C10.1 63.6671 10.169 63.6808 10.2335 63.7075C10.2979 63.7342 10.3565 63.7733 10.4058 63.8226C10.4552 63.872 10.4943 63.9305 10.521 63.995C10.5476 64.0594 10.5613 64.1285 10.5613 64.1983L9.65448 63.8226C9.70381 63.7733 9.76239 63.7341 9.82686 63.7075C9.89133 63.6808 9.96043 63.6671 10.0302 63.6671ZM19.5915 62.8548L19.5914 62.6048M19.5915 62.8548L19.5914 62.6048M19.5914 62.6048L19.5912 62.8548C19.6938 62.8549 19.7954 62.8347 19.8903 62.7955C19.9851 62.7562 20.0713 62.6987 20.1438 62.6261C20.2164 62.5536 20.274 62.4674 20.3132 62.3726C20.3525 62.2778 20.3727 62.1762 20.3726 62.0737C20.3726 62.0736 20.3726 62.0736 20.3726 62.0735V55.7014C20.3726 55.2697 20.0231 54.9204 19.5915 54.9203L19.5914 62.6048ZM18.8102 55.7016V62.0735V55.7016Z" fill="black" stroke="black" stroke-width="0.5"/>
<path d="M31.7871 53.0647C31.8597 53.1373 31.9459 53.1949 32.0407 53.2341C32.1354 53.2734 32.237 53.2935 32.3396 53.2935L31.7871 53.0647C31.7871 53.0647 31.7871 53.0647 31.7871 53.0647ZM31.7871 53.0647C31.7146 52.9922 31.657 52.906 31.6178 52.8112C31.5786 52.7164 31.5585 52.6148 31.5585 52.5123C31.5585 52.5122 31.5585 52.5122 31.5585 52.5122V42.9521C31.5585 42.5205 31.908 42.1709 32.3396 42.1709C32.7713 42.1709 33.1209 42.5204 33.1209 42.9521V52.5123C33.1209 52.9438 32.7715 53.2934 32.3397 53.2935L31.7871 53.0647Z" fill="black" stroke="black" stroke-width="0.5"/>
<path d="M40.8386 69.2289C40.4068 69.2289 40.0573 68.8793 40.0573 68.4476V56.7617C40.0573 56.33 40.4068 55.9805 40.8384 55.9805L40.8386 69.2289ZM40.8386 69.2289C41.2702 69.2289 41.6197 68.8793 41.6197 68.4476L41.6197 56.7619M40.8386 69.2289L41.6197 56.7619M41.6197 56.7619C41.6197 56.7618 41.6197 56.7618 41.6197 56.7617C41.6197 56.6592 41.5996 56.5576 41.5604 56.4628C41.5211 56.368 41.4636 56.2818 41.391 56.2092C41.3185 56.1367 41.2323 56.0791 41.1375 56.0398C41.0427 56.0006 40.9411 55.9804 40.8386 55.9805L40.3073 56.7617V68.4476C40.3073 68.7413 40.5449 68.9789 40.8386 68.9789C41.1321 68.9789 41.3697 68.7413 41.3697 68.4476V56.7617L41.6197 56.7619Z" fill="black" stroke="black" stroke-width="0.5"/>
<path d="M53.0343 69L53.0343 69C52.9618 68.9274 52.9042 68.8413 52.865 68.7464L53.096 68.6509L52.865 68.7464C52.8258 68.6516 52.8056 68.5501 52.8057 68.4475V49.3252C52.8057 48.8936 53.155 48.5439 53.5868 48.5439C54.0185 48.5439 54.3681 48.8935 54.3681 49.3252V68.4475C54.3681 68.8792 54.0186 69.2287 53.5869 69.2288L53.0343 69ZM53.0343 69C53.1069 69.0726 53.193 69.1302 53.2879 69.1694C53.3826 69.2086 53.4842 69.2288 53.5868 69.2288L53.0343 69Z" fill="black" stroke="black" stroke-width="0.5"/>
<path d="M62.8722 31.2654L62.8722 31.2656L62.8722 45.0755C62.8722 45.0755 62.8722 45.0756 62.8722 45.0756C62.8722 45.1782 62.852 45.2798 62.8128 45.3745C62.7736 45.4693 62.716 45.5555 62.6435 45.628C62.5709 45.7006 62.4848 45.7581 62.39 45.7974C62.2952 45.8366 62.1936 45.8568 62.0911 45.8567L62.8722 31.2654ZM62.8722 31.2654C62.8722 31.1628 62.8521 31.0613 62.8129 30.9665C62.7736 30.8716 62.7161 30.7855 62.6435 30.7129C62.571 30.6403 62.4848 30.5828 62.39 30.5435C62.2952 30.5043 62.1936 30.4841 62.0911 30.4841L62.8722 31.2654ZM61.3098 45.0756C61.3098 45.5072 61.6593 45.8567 62.0909 45.8567L62.0909 30.4841C61.6592 30.4842 61.3098 30.8339 61.3098 31.2654V45.0756Z" fill="black" stroke="black" stroke-width="0.5"/>
</svg>
