<svg width="68" height="68" viewBox="0 0 68 68" fill="none" xmlns="http://www.w3.org/2000/svg">
<g clip-path="url(#clip0_121_40)">
<path d="M11.3333 36.8333C14.45 36.8333 17 34.2833 17 31.1667C17 28.05 14.45 25.5 11.3333 25.5C8.21667 25.5 5.66667 28.05 5.66667 31.1667C5.66667 34.2833 8.21667 36.8333 11.3333 36.8333ZM14.535 39.95C13.4867 39.78 12.4383 39.6667 11.3333 39.6667C8.52833 39.6667 5.865 40.2617 3.45667 41.31C1.36 42.2167 0 44.2567 0 46.5517V51H12.75V46.4383C12.75 44.0867 13.4017 41.8767 14.535 39.95ZM56.6667 36.8333C59.7833 36.8333 62.3333 34.2833 62.3333 31.1667C62.3333 28.05 59.7833 25.5 56.6667 25.5C53.55 25.5 51 28.05 51 31.1667C51 34.2833 53.55 36.8333 56.6667 36.8333ZM68 46.5517C68 44.2567 66.64 42.2167 64.5433 41.31C62.135 40.2617 59.4717 39.6667 56.6667 39.6667C55.5617 39.6667 54.5133 39.78 53.465 39.95C54.5983 41.8767 55.25 44.0867 55.25 46.4383V51H68V46.5517ZM46.0133 38.675C42.6983 37.2017 38.6183 36.125 34 36.125C29.3817 36.125 25.3017 37.23 21.9867 38.675C18.9267 40.035 17 43.095 17 46.4383V51H51V46.4383C51 43.095 49.0733 40.035 46.0133 38.675ZM22.865 45.3333C23.12 44.6817 23.2333 44.2283 25.4433 43.3783C28.1917 42.3017 31.0817 41.7917 34 41.7917C36.9183 41.7917 39.8083 42.3017 42.5567 43.3783C44.7383 44.2283 44.8517 44.6817 45.135 45.3333H22.865ZM34 22.6667C35.5583 22.6667 36.8333 23.9417 36.8333 25.5C36.8333 27.0583 35.5583 28.3333 34 28.3333C32.4417 28.3333 31.1667 27.0583 31.1667 25.5C31.1667 23.9417 32.4417 22.6667 34 22.6667ZM34 17C29.2967 17 25.5 20.7967 25.5 25.5C25.5 30.2033 29.2967 34 34 34C38.7033 34 42.5 30.2033 42.5 25.5C42.5 20.7967 38.7033 17 34 17Z" fill="#323232"/>
</g>
<defs>
<clipPath id="clip0_121_40">
<rect width="68" height="68" fill="white"/>
</clipPath>
</defs>
</svg>
