<svg width="50" height="50" viewBox="0 0 50 50" fill="none" xmlns="http://www.w3.org/2000/svg">
<path d="M13.835 3.78486L13.8336 3.78465C13.2807 3.70214 12.7371 3.64772 12.1892 3.64771L13.835 3.78486ZM13.835 3.78486C19.2392 4.58371 23.3823 9.22529 23.3823 14.8454C23.3823 17.8588 22.1861 20.5886 20.2433 22.6035L20.2432 22.6035M13.835 3.78486L20.2432 22.6035M20.2432 22.6035C18.2042 24.7185 15.3544 26.0343 12.189 26.0343C6.00777 26.0343 1 21.0231 1 14.841C1 8.6597 6.00697 3.65205 12.189 3.64771L20.2432 22.6035ZM13.0068 23.2492H14.0068V22.2492V21.1786C16.007 20.5388 17.2392 18.9642 17.2346 17.0365C17.2343 16.0224 16.9539 15.1142 16.275 14.3506C15.6274 13.6222 14.6915 13.1108 13.5458 12.7054C12.8551 12.4444 12.4335 12.2544 12.1817 12.0994C12.2748 12.0805 12.4056 12.0651 12.5848 12.0651C13.5698 12.0651 14.2053 12.3415 14.6765 12.5463C14.7216 12.5659 14.7651 12.5849 14.8074 12.6029L15.8782 13.059L16.1678 11.9317L16.6941 9.88278L16.8969 9.0936L16.1649 8.73563C15.622 8.4701 14.9544 8.24574 14.0938 8.12283V7.43716V6.43716H13.0938H11.3146H10.3146V7.43716V8.39378C8.46341 9.0261 7.24778 10.4778 7.24778 12.3919C7.24778 13.5647 7.70633 14.4936 8.47447 15.2013C9.20214 15.8717 10.1764 16.3166 11.1947 16.6585C11.8423 16.8786 12.1832 17.0563 12.353 17.193C12.4029 17.2332 12.4255 17.2602 12.4343 17.2723C12.4318 17.274 12.429 17.2758 12.4259 17.2777C12.335 17.3345 12.1068 17.4168 11.6974 17.4168C10.7272 17.4168 9.82212 17.0984 9.1681 16.7396L8.03705 16.1192L7.71817 17.3692L7.17441 19.5007L6.98688 20.2358L7.64429 20.6145C8.29651 20.9901 9.22984 21.288 10.2276 21.4345V22.2492V23.2492H11.2276H13.0068ZM11.9845 11.9531C11.9846 11.9531 11.9855 11.9541 11.9869 11.956C11.9852 11.9541 11.9844 11.9531 11.9845 11.9531ZM12.4563 17.2552C12.4568 17.2547 12.457 17.2544 12.457 17.2545L12.4563 17.2552Z" stroke="#FEF5F5" stroke-width="2" stroke-miterlimit="10"/>
<path d="M14.7883 35.9429L14.788 35.9449C14.6186 37.4702 15.7182 38.8415 17.2434 39.0078L17.2447 39.0079C19.5336 39.2606 21.3527 40.593 22.7393 42.1375C24.1279 43.6843 25.162 45.5301 25.8804 46.9959M14.7883 35.9429L24.9826 47.4362M14.7883 35.9429C14.9549 34.4147 16.3031 33.3135 17.8608 33.4833M14.7883 35.9429L13.7942 35.8345C14.0204 33.7595 15.8605 32.2587 17.9703 32.4893M25.8804 46.9959C25.8805 46.996 25.8805 46.996 25.8805 46.9961L24.9826 47.4362M25.8804 46.9959C25.8803 46.9957 25.8802 46.9955 25.8801 46.9952L24.9826 47.4362M25.8804 46.9959C26.4519 48.1583 27.6347 48.894 28.9281 48.894H45.6064C47.4778 48.894 49 47.3748 49 45.5004V38.8622C49 35.1248 46.261 31.9483 42.5666 31.3991L42.5662 31.399L35.1268 30.2903L35.2706 29.3007L35.1232 30.2897L35.1243 30.2899C34.1174 30.1424 33.3875 29.2755 33.3875 28.274V16.5984C33.3875 15.0634 32.1438 13.8225 30.6116 13.8225C29.0766 13.8225 27.8357 15.0662 27.8357 16.5984V34.6556C27.8357 35.3066 27.4782 35.8894 26.9242 36.1961L26.9122 36.2028L26.9121 36.2027C26.3466 36.5056 25.6535 36.4768 25.1145 36.1209L25.1129 36.1198C23.1496 34.8178 20.759 33.8031 17.8608 33.4833M24.9826 47.4362C25.7221 48.9414 27.2534 49.894 28.9281 49.894H45.6064C48.0294 49.894 50 47.9278 50 45.5004V38.8622C50 34.6295 46.8984 31.032 42.7136 30.4099L35.2706 29.3007C34.7616 29.2267 34.3875 28.7874 34.3875 28.274V16.5984C34.3875 14.5103 32.6953 12.8225 30.6116 12.8225C28.5236 12.8225 26.8357 14.5147 26.8357 16.5984V34.6556C26.8357 34.934 26.6835 35.1863 26.4399 35.3212C26.1963 35.4517 25.8961 35.4387 25.6656 35.2864C23.5862 33.9074 21.0458 32.8286 17.9703 32.4893M17.8608 33.4833C17.8611 33.4833 17.8614 33.4833 17.8616 33.4834L17.9703 32.4893M17.8608 33.4833C17.8607 33.4833 17.8607 33.4833 17.8606 33.4833L17.9703 32.4893" stroke="#FEF5F5" stroke-width="2" stroke-miterlimit="10"/>
<path d="M27.1117 6.74444L27.1118 6.74437L27.1117 6.74444Z" stroke="#FEF5F5" stroke-width="2" stroke-miterlimit="10"/>
<path d="M26.7465 0.944381C26.7465 0.944469 26.7464 0.944556 26.7464 0.944644L26.7465 0.944381Z" stroke="#FEF5F5" stroke-width="2" stroke-miterlimit="10"/>
<mask id="path-5-inside-1_118_9" fill="white">
<path d="M32.2255 11.3565C32.1255 11.3565 32.0254 11.3391 31.9254 11.3043L27.6318 9.8209C27.1489 9.65559 26.8923 9.12923 27.0619 8.64637C27.2273 8.16351 27.758 7.91121 28.2365 8.07651L32.53 9.55989C33.0129 9.7252 33.2652 10.2516 33.0999 10.7344C32.965 11.1172 32.6083 11.3565 32.2255 11.3565Z"/>
</mask>
<path d="M31.9254 11.3043L32.5824 9.41528L32.5785 9.41392L31.9254 11.3043ZM27.6318 9.8209L28.2849 7.93053L28.2796 7.92871L27.6318 9.8209ZM27.0619 8.64637L28.9489 9.30934L28.9515 9.30176L28.9541 9.29415L27.0619 8.64637ZM28.2365 8.07651L28.8896 6.18615L28.8895 6.18613L28.2365 8.07651ZM32.53 9.55989L31.8769 11.4503L31.8822 11.4521L32.53 9.55989ZM33.0999 10.7344L34.9863 11.3989L34.9892 11.3906L34.9921 11.3822L33.0999 10.7344ZM32.2255 9.35648C32.362 9.35648 32.4837 9.38095 32.5824 9.41529L31.2683 13.1933C31.5671 13.2972 31.8889 13.3565 32.2255 13.3565V9.35648ZM32.5785 9.41392L28.2849 7.93054L26.9787 11.7113L31.2723 13.1946L32.5785 9.41392ZM28.2796 7.92871C28.8449 8.12223 29.1484 8.74134 28.9489 9.30934L25.175 7.9834C24.6362 9.51713 25.453 11.189 26.984 11.7131L28.2796 7.92871ZM28.9541 9.29415C28.755 9.87588 28.1334 10.1569 27.5834 9.96689L28.8895 6.18613C27.3825 5.66552 25.6995 6.45115 25.1698 7.99859L28.9541 9.29415ZM27.5834 9.96687L31.8769 11.4503L33.1831 7.66953L28.8896 6.18615L27.5834 9.96687ZM31.8822 11.4521C31.3012 11.2532 31.0217 10.6298 31.2077 10.0866L34.9921 11.3822C35.5086 9.87328 34.7246 8.19722 33.1778 7.6677L31.8822 11.4521ZM31.2135 10.0699C31.3666 9.63544 31.7782 9.35648 32.2255 9.35648V13.3565C33.4385 13.3565 34.5635 12.599 34.9863 11.3989L31.2135 10.0699Z" fill="#FEF5F5" mask="url(#path-5-inside-1_118_9)"/>
</svg>
