<svg width="42" height="42" viewBox="0 0 42 42" fill="none" xmlns="http://www.w3.org/2000/svg">
<path d="M21 0.166626C9.49999 0.166626 0.166656 9.49996 0.166656 21C0.166656 32.5 9.49999 41.8333 21 41.8333C32.5 41.8333 41.8333 32.5 41.8333 21C41.8333 9.49996 32.5 0.166626 21 0.166626ZM36.5417 15L30.75 17.3958C29.6875 14.5625 27.4583 12.3125 24.6042 11.2708L27 5.47913C31.375 7.14579 34.8542 10.625 36.5417 15ZM21 27.25C17.5417 27.25 14.75 24.4583 14.75 21C14.75 17.5416 17.5417 14.75 21 14.75C24.4583 14.75 27.25 17.5416 27.25 21C27.25 24.4583 24.4583 27.25 21 27.25ZM15.0208 5.45829L17.4583 11.25C14.5833 12.2916 12.3125 14.5625 11.25 17.4375L5.45832 15.0208C7.14582 10.625 10.625 7.14579 15.0208 5.45829ZM5.45832 26.9791L11.25 24.5833C12.3125 27.4583 14.5625 29.7083 17.4375 30.75L15 36.5416C10.625 34.8541 7.14582 31.375 5.45832 26.9791ZM27 36.5416L24.6042 30.75C27.4583 29.6875 29.7083 27.4375 30.75 24.5625L36.5417 27C34.8542 31.375 31.375 34.8541 27 36.5416Z" fill="#FEF5F5"/>
</svg>
