<svg width="42" height="42" viewBox="0 0 42 42" fill="none" xmlns="http://www.w3.org/2000/svg">
<path d="M0.618334 19.3589L6.86833 13.1089C7.05717 12.8962 7.28756 12.7244 7.54531 12.6041C7.80307 12.4838 8.08272 12.4176 8.36705 12.4095C8.65138 12.4014 8.93436 12.4516 9.19854 12.557C9.46273 12.6625 9.70252 12.8209 9.90316 13.0225C10.1038 13.2241 10.261 13.4647 10.3651 13.7294C10.4692 13.9941 10.518 14.2773 10.5085 14.5616C10.499 14.8459 10.4314 15.1252 10.3098 15.3824C10.1883 15.6395 10.0153 15.8691 9.80167 16.0568L7.10792 18.7527H18.7433V7.1131L16.0517 9.80685C15.6587 10.1863 15.1325 10.3963 14.5862 10.3916C14.04 10.3868 13.5175 10.1677 13.1312 9.78147C12.7449 9.3952 12.5258 8.87268 12.5211 8.32643C12.5163 7.78019 12.7263 7.25393 13.1058 6.86101L19.3558 0.611014C19.5493 0.417313 19.7791 0.263648 20.032 0.158806C20.2849 0.0539636 20.556 0 20.8298 0C21.1036 0 21.3747 0.0539636 21.6276 0.158806C21.8805 0.263648 22.1103 0.417313 22.3037 0.611014L28.5537 6.86101C28.7527 7.05319 28.9114 7.28308 29.0206 7.53725C29.1298 7.79143 29.1873 8.0648 29.1897 8.34143C29.1921 8.61805 29.1394 8.89238 29.0346 9.14842C28.9299 9.40445 28.7752 9.63706 28.5796 9.83267C28.384 10.0283 28.1514 10.183 27.8953 10.2877C27.6393 10.3925 27.365 10.4452 27.0883 10.4428C26.8117 10.4404 26.5383 10.3829 26.2842 10.2737C26.03 10.1645 25.8001 10.0058 25.6079 9.80685L22.91 7.1131V18.7527H34.5475L31.8558 16.0568C31.6569 15.8647 31.4981 15.6348 31.389 15.3806C31.2798 15.1264 31.2223 14.8531 31.2199 14.5764C31.2175 14.2998 31.2702 14.0255 31.375 13.7694C31.4797 13.5134 31.6344 13.2808 31.83 13.0852C32.0256 12.8896 32.2582 12.7349 32.5143 12.6301C32.7703 12.5254 33.0446 12.4727 33.3213 12.4751C33.5979 12.4775 33.8712 12.535 34.1254 12.6441C34.3796 12.7533 34.6095 12.912 34.8017 13.111L41.0517 19.361C41.2457 19.5545 41.3996 19.7844 41.5046 20.0375C41.6097 20.2906 41.6637 20.562 41.6637 20.836C41.6637 21.11 41.6097 21.3814 41.5046 21.6345C41.3996 21.8876 41.2457 22.1175 41.0517 22.311L34.8017 28.561C34.6095 28.76 34.3796 28.9187 34.1254 29.0279C33.8712 29.1371 33.5979 29.1945 33.3213 29.197C33.0446 29.1994 32.7703 29.1466 32.5143 29.0419C32.2582 28.9371 32.0256 28.7824 31.83 28.5868C31.6344 28.3912 31.4797 28.1586 31.375 27.9026C31.2702 27.6465 31.2175 27.3722 31.2199 27.0956C31.2223 26.819 31.2798 26.5456 31.389 26.2914C31.4981 26.0372 31.6569 25.8074 31.8558 25.6152L34.5496 22.9193H22.91V34.5568L25.6038 31.8631C25.9967 31.4836 26.5229 31.2736 27.0692 31.2784C27.6154 31.2831 28.1379 31.5022 28.5242 31.8885C28.9105 32.2747 29.1296 32.7973 29.1343 33.3435C29.1391 33.8898 28.9291 34.416 28.5496 34.8089L22.2996 41.0589C22.1061 41.2526 21.8763 41.4063 21.6234 41.5111C21.3705 41.616 21.0994 41.6699 20.8256 41.6699C20.5518 41.6699 20.2807 41.616 20.0278 41.5111C19.7749 41.4063 19.5452 41.2526 19.3517 41.0589L13.1017 34.8089C12.7222 34.416 12.5122 33.8898 12.5169 33.3435C12.5217 32.7973 12.7408 32.2747 13.127 31.8885C13.5133 31.5022 14.0358 31.2831 14.5821 31.2784C15.1283 31.2736 15.6546 31.4836 16.0475 31.8631L18.7433 34.5548V22.9193H7.10792L9.80167 25.6131C10.0006 25.8053 10.1594 26.0352 10.2685 26.2893C10.3777 26.5435 10.4352 26.8169 10.4376 27.0935C10.44 27.3701 10.3873 27.6445 10.2825 27.9005C10.1778 28.1565 10.0231 28.3891 9.82749 28.5848C9.63188 28.7804 9.39927 28.9351 9.14324 29.0398C8.8872 29.1446 8.61287 29.1973 8.33625 29.1949C8.05962 29.1925 7.78625 29.135 7.53207 29.0258C7.2779 28.9166 7.04802 28.7579 6.85583 28.5589L0.605834 22.3089C0.412638 22.1146 0.259682 21.884 0.155726 21.6305C0.0517706 21.3769 -0.00114244 21.1054 1.8704e-05 20.8313C0.00117985 20.5573 0.0563923 20.2862 0.162493 20.0335C0.268594 19.7809 0.423498 19.5516 0.618334 19.3589Z" fill="#FEF5F5"/>
</svg>
